{
	"asset":{
		"generator":"Khronos glTF Blender I/O v3.6.27",
		"version":"2.0"
	},
	"extensionsUsed":[
		"KHR_materials_specular",
		"KHR_materials_ior"
	],
	"scene":0,
	"scenes":[
		{
			"name":"Scene",
			"nodes":[
				0
			]
		}
	],
	"nodes":[
		{
			"mesh":0,
			"name":"Cube_Cube.001",
			"rotation":[
				0.45280566811561584,
				0.10838226228952408,
				-0.006831753998994827,
				0.8849709630012512
			]
		}
	],
	"materials":[
		{
			"doubleSided":true,
			"extensions":{
				"KHR_materials_specular":{
					"specularColorFactor":[
						1.737323946976062,
						1.737323946976062,
						1.737323946976062
					]
				},
				"KHR_materials_ior":{
					"ior":1.4500000476837158
				}
			},
			"name":"Material.001",
			"pbrMetallicRoughness":{
				"baseColorFactor":[
					0.05328412353992462,
					0.003721406450495124,
					0.06207919120788574,
					1
				],
				"metallicFactor":0,
				"roughnessFactor":0.6722054481506348
			}
		},
		{
			"doubleSided":true,
			"name":"Material.002",
			"pbrMetallicRoughness":{
				"baseColorFactor":[
					0.800000011920929,
					0.800000011920929,
					0.800000011920929,
					1
				],
				"metallicFactor":0,
				"roughnessFactor":0.5
			}
		}
	],
	"meshes":[
		{
			"name":"Cube_Cube.001",
			"primitives":[
				{
					"attributes":{
						"POSITION":0,
						"NORMAL":1,
						"TEXCOORD_0":2
					},
					"indices":3,
					"material":0
				},
				{
					"attributes":{
						"POSITION":4,
						"NORMAL":5,
						"TEXCOORD_0":6
					},
					"indices":7,
					"material":1
				}
			]
		}
	],
	"accessors":[
		{
			"bufferView":0,
			"componentType":5126,
			"count":10230,
			"max":[
				1.3953169584274292,
				3.1943960189819336,
				1.3159129619598389
			],
			"min":[
				-1.0313409566879272,
				-1.3146380186080933,
				-3.487149953842163
			],
			"type":"VEC3"
		},
		{
			"bufferView":1,
			"componentType":5126,
			"count":10230,
			"type":"VEC3"
		},
		{
			"bufferView":2,
			"componentType":5126,
			"count":10230,
			"type":"VEC2"
		},
		{
			"bufferView":3,
			"componentType":5123,
			"count":60288,
			"type":"SCALAR"
		},
		{
			"bufferView":4,
			"componentType":5126,
			"count":6045,
			"max":[
				1.0741260051727295,
				3.603163957595825,
				-2.6018149852752686
			],
			"min":[
				0.031233999878168106,
				2.242309093475342,
				-3.9846839904785156
			],
			"type":"VEC3"
		},
		{
			"bufferView":5,
			"componentType":5126,
			"count":6045,
			"type":"VEC3"
		},
		{
			"bufferView":6,
			"componentType":5126,
			"count":6045,
			"type":"VEC2"
		},
		{
			"bufferView":7,
			"componentType":5123,
			"count":34653,
			"type":"SCALAR"
		}
	],
	"bufferViews":[
		{
			"buffer":0,
			"byteLength":122760,
			"byteOffset":0,
			"target":34962
		},
		{
			"buffer":0,
			"byteLength":122760,
			"byteOffset":122760,
			"target":34962
		},
		{
			"buffer":0,
			"byteLength":81840,
			"byteOffset":245520,
			"target":34962
		},
		{
			"buffer":0,
			"byteLength":120576,
			"byteOffset":327360,
			"target":34963
		},
		{
			"buffer":0,
			"byteLength":72540,
			"byteOffset":447936,
			"target":34962
		},
		{
			"buffer":0,
			"byteLength":72540,
			"byteOffset":520476,
			"target":34962
		},
		{
			"buffer":0,
			"byteLength":48360,
			"byteOffset":593016,
			"target":34962
		},
		{
			"buffer":0,
			"byteLength":69306,
			"byteOffset":641376,
			"target":34963
		}
	],
	"buffers":[
		{
			"byteLength":710684,
			"uri":"data:application/octet-stream;base64,"
		}
	]
}
